# xmcd
#
# Track frame offsets: 
#        150
#        11864
#        19738
#        41520
#        53218
#        65684
#        86716
#        99230
#        118808
#        136233
#        145316
#        166269
#        183583
#        196989
#        221805
#        235803
#
# Disc length: 3366 seconds
#
# Revision: 0
# Processed by: cddbd v1.5.2PL0 Copyright (c) Steve Scherf et al.
# Submitted via: ExactAudioCopy v0.99pb4
#
DISCID=e70d2410
DTITLE=Various Artist - A Very Mylo Christmas
DYEAR=2007
DGENRE=Christmas/Holiday
TTITLE0=Mylo and Emma Hatzenbuhler - Heifer Bells
TTITLE1=Mylo and Emma Hatzenbuhler - My Country Agent
TTITLE2=Mylo and Emma Hatzenbuhler - Walkin' 'Till My Pants Fit Again
TTITLE3=Mylo and Emma Hatzenbuhler - John Deere Dealer's Coming To Town
TTITLE4=Mylo and Emma Hatzenbuhler - Cold Fingers
TTITLE5=Mylo and Emma Hatzenbuhler - I'm Dreaming Of A Big Harvest
TTITLE6=Mylo and Emma Hatzenbuhler - Rudolph The Unpolled Hereford
TTITLE7=Mylo and Emma Hatzenbuhler - Carol Medley
TTITLE8=Mylo and Emma Hatzenbuhler - Winter In Nordakota
TTITLE9=Mylo and Emma Hatzenbuhler - Checkout Gals
TTITLE10=Mylo and Emma Hatzenbuhler - The Night Before Christmas
TTITLE11=Mylo and Emma Hatzenbuhler - Have Yourself A Very Mylo Christma
TTITLE11=s
TTITLE12=Clyde and Janet Bauman - Silent Night
TTITLE13=Clyde and Janet Bauman - Oh Holy Night-I'd Rather Have Jesus
TTITLE14=Clyde and Janet Bauman - When I Survey
TTITLE15=Clyde and Janet Bauman - Wandering Pilgrim
EXTD=
EXTT0=
EXTT1=
EXTT2=
EXTT3=
EXTT4=
EXTT5=
EXTT6=
EXTT7=
EXTT8=
EXTT9=
EXTT10=
EXTT11=
EXTT12=
EXTT13=
EXTT14=
EXTT15=
PLAYORDER=
